<svg xmlns="http://www.w3.org/2000/svg" xmlns:xlink="http://www.w3.org/1999/xlink" width="497.176" height="512.849" viewBox="0 0 497.176 512.849">
  <defs>
    <clipPath id="clip-path">
      <rect id="Rectangle_104" data-name="Rectangle 104" width="444.191" height="477.309" fill="none"/>
    </clipPath>
    <clipPath id="clip-path-3">
      <path id="Tracé_16" data-name="Tracé 16" d="M284.216,29.073l4.39,315.561a32.944,32.944,0,0,1-14.939,27.713l125.6-33.641c8.292,0,15.005-7.417,15.005-16.579L409.708,42.413c0-9.162-6.713-16.58-15.005-16.58L268.31.749a32.939,32.939,0,0,1,15.906,28.324" transform="translate(-268.31 -0.749)" fill="none"/>
    </clipPath>
    <linearGradient id="linear-gradient" x1="-2.043" y1="1.282" x2="-2.036" y2="1.282" gradientUnits="objectBoundingBox">
      <stop offset="0" stop-color="#073f8a"/>
      <stop offset="1" stop-color="#073f8a"/>
    </linearGradient>
    <clipPath id="clip-path-5">
      <rect id="Rectangle_100" data-name="Rectangle 100" width="265.77" height="192.229" fill="none"/>
    </clipPath>
    <clipPath id="clip-path-6">
      <rect id="Rectangle_102" data-name="Rectangle 102" width="29.534" height="8.975" fill="none"/>
    </clipPath>
    <clipPath id="clip-path-7">
      <rect id="Rectangle_105" data-name="Rectangle 105" width="95.352" height="32.699" transform="translate(0 0)" fill="#073f8a"/>
    </clipPath>
    <clipPath id="clip-path-8">
      <rect id="Rectangle_106" data-name="Rectangle 106" width="10.062" height="308.741" fill="#073f8a"/>
    </clipPath>
    <clipPath id="clip-path-9">
      <rect id="Rectangle_107" data-name="Rectangle 107" width="271.002" height="27.975" transform="translate(0 0)" fill="#073f8a"/>
    </clipPath>
  </defs>
  <g id="Illustration_distrib" data-name="Illustration distrib" transform="translate(-1090 -2836.46)">
    <text id="_62cm" data-name="62cm" transform="translate(1106 3057) rotate(-90)" fill="#073f8a" font-size="18" font-family="HKGrotesk-Medium, HK Grotesk" font-weight="500"><tspan x="-22.307" y="0">62cm</tspan></text>
    <text id="_30cm" data-name="30cm" transform="matrix(0.956, -0.292, 0.292, 0.956, 1548.108, 3260.958)" fill="#073f8a" font-size="18" font-family="HKGrotesk-Medium, HK Grotesk" font-weight="500"><tspan x="-22.307" y="0">30cm</tspan></text>
    <text id="_55cm" data-name="55cm" transform="matrix(0.998, -0.07, 0.07, 0.998, 1293.884, 2854.026)" fill="#073f8a" font-size="18" font-family="HKGrotesk-Medium, HK Grotesk" font-weight="500"><tspan x="-22.307" y="0">55cm</tspan></text>
    <g id="Groupe_37" data-name="Groupe 37" transform="translate(1142.985 2872)">
      <g id="Groupe_36" data-name="Groupe 36" clip-path="url(#clip-path)">
        <g id="Groupe_25" data-name="Groupe 25">
          <g id="Groupe_24" data-name="Groupe 24" clip-path="url(#clip-path)">
            <path id="Tracé_15" data-name="Tracé 15" d="M355.574,407.112c0,15.419-61.386,27.917-137.11,27.917s-137.109-12.5-137.109-27.917S142.741,379.2,218.464,379.2s137.11,12.5,137.11,27.917" transform="translate(9.071 42.279)" fill="#f6f6f6"/>
          </g>
        </g>
        <g id="Groupe_27" data-name="Groupe 27" transform="translate(298.226 0.833)">
          <g id="Groupe_26" data-name="Groupe 26" clip-path="url(#clip-path-3)">
            <rect id="Rectangle_99" data-name="Rectangle 99" width="145.964" height="371.598" transform="translate(0 0)" fill="url(#linear-gradient)"/>
          </g>
        </g>
        <g id="Groupe_35" data-name="Groupe 35">
          <g id="Groupe_34" data-name="Groupe 34" clip-path="url(#clip-path)">
            <path id="Tracé_17" data-name="Tracé 17" d="M284.254,228.838,26.131,225.181V51.778L284.254,32.949l7.647-.556,3.457,196.6ZM286.01.57l24.442,3.812a32.212,32.212,0,0,1,15.906,27.8l4.39,309.708A32.263,32.263,0,0,1,298.5,374.133l-266.259-9.77A32.249,32.249,0,0,1,0,332.107V52.6A32.248,32.248,0,0,1,32.245,20.355L284.254.7Z" transform="translate(0 0.064)" fill="#83c9f0"/>
            <path id="Tracé_18" data-name="Tracé 18" d="M281.762,4.446,257.32.634,265.412,0a32.107,32.107,0,0,1,16.35,4.446" transform="translate(28.69)" fill="#83c9f0"/>
            <path id="Tracé_19" data-name="Tracé 19" d="M292.737,225.8l-11.1-.156L23.51,221.99V48.585L281.633,29.756l7.647-.556Z" transform="translate(2.621 3.256)" fill="#cc92ea"/>
            <g id="Groupe_30" data-name="Groupe 30" transform="translate(26.131 32.456)" opacity="0.2">
              <g id="Groupe_29" data-name="Groupe 29">
                <g id="Groupe_28" data-name="Groupe 28" clip-path="url(#clip-path-5)">
                  <path id="Tracé_20" data-name="Tracé 20" d="M157.087,125.314,23.51,221.429V48.584L289.28,29.2Z" transform="translate(-23.51 -29.2)" fill="#fff"/>
                </g>
              </g>
            </g>
            <path id="Tracé_21" data-name="Tracé 21" d="M83.458,36.138,19.023,40.925v-12.8l63.988-5.1Z" transform="translate(2.121 2.567)" fill="#66a0b5"/>
            <path id="Tracé_22" data-name="Tracé 22" d="M87.588,301.334l-66.408-3.869a8.808,8.808,0,0,1-8.622-8.983V233.21a8.808,8.808,0,0,1,8.622-8.984l67.047.456a8.808,8.808,0,0,1,8.622,8.983L96.21,292.35a8.809,8.809,0,0,1-8.622,8.984" transform="translate(1.4 25.001)" fill="#f6f6f6"/>
            <path id="Tracé_23" data-name="Tracé 23" d="M72.585,286.868H40.112a3.756,3.756,0,0,1-3.757-3.756V241.889a3.756,3.756,0,0,1,3.757-3.757H72.585a3.756,3.756,0,0,1,3.756,3.757v41.223a3.756,3.756,0,0,1-3.756,3.756" transform="translate(4.053 26.551)" fill="#e8c30c"/>
            <path id="Tracé_24" data-name="Tracé 24" d="M61.695,286.868H29.213a3.753,3.753,0,0,1-3.752-3.752v-41.23a3.753,3.753,0,0,1,3.752-3.754H61.695a3.753,3.753,0,0,1,3.752,3.754v41.23a3.752,3.752,0,0,1-3.752,3.752" transform="translate(2.839 26.551)" fill="#ffed00"/>
            <rect id="Rectangle_101" data-name="Rectangle 101" width="29.534" height="8.976" transform="translate(32.881 270.96)" fill="#b2b2b2"/>
            <g id="Groupe_33" data-name="Groupe 33" transform="translate(32.881 270.961)" opacity="0.28">
              <g id="Groupe_32" data-name="Groupe 32">
                <g id="Groupe_31" data-name="Groupe 31" clip-path="url(#clip-path-6)">
                  <path id="Tracé_25" data-name="Tracé 25" d="M42.148,248.874l-12.565,3.882V243.78H59.116Z" transform="translate(-29.583 -243.78)" fill="#fff"/>
                </g>
              </g>
            </g>
            <path id="Tracé_26" data-name="Tracé 26" d="M48.529,279.108H28.983V268.754h29.9a10.354,10.354,0,0,1-10.354,10.354" transform="translate(3.232 29.965)" fill="#3c3c3b"/>
            <path id="Tracé_27" data-name="Tracé 27" d="M268.078,316.829l-77.592-2.869a10.169,10.169,0,0,1-9.955-10.372V239.773a10.169,10.169,0,0,1,9.955-10.372l77.409.526a10.17,10.17,0,0,1,9.953,10.374l.185,66.156a10.17,10.17,0,0,1-9.955,10.372" transform="translate(20.129 25.578)" fill="#ededed"/>
            <path id="Tracé_28" data-name="Tracé 28" d="M268.078,318.315h-.055l-77.566-2.868a11.165,11.165,0,0,1-8.083-3.495,12.007,12.007,0,0,1-3.329-8.363V239.773a12.007,12.007,0,0,1,3.329-8.363,11.165,11.165,0,0,1,8.111-3.495h.01l77.4.526a11.163,11.163,0,0,1,8.1,3.5,12.009,12.009,0,0,1,3.329,8.364l.185,66.152a12.009,12.009,0,0,1-3.329,8.367A11.165,11.165,0,0,1,268.078,318.315Zm-77.6-87.428a8.7,8.7,0,0,0-8.466,8.887v63.814a8.7,8.7,0,0,0,8.469,8.887h.055l77.564,2.868a8.7,8.7,0,0,0,8.442-8.887l-.185-66.152a8.7,8.7,0,0,0-8.468-8.892h-.01Z" transform="translate(20.129 25.578)" fill="#dadada"/>
          </g>
        </g>
        <text id="PUSH" transform="matrix(1, 0.015, -0.015, 1, 213.5, 305.365)" fill="#c6c6c6" font-size="23" font-family="Helvetica"><tspan x="0" y="0">PUSH</tspan></text>
      </g>
    </g>
    <g id="Groupe_39" data-name="Groupe 39" transform="translate(1489 3223)">
      <g id="Groupe_38" data-name="Groupe 38" clip-path="url(#clip-path-7)">
        <path id="Tracé_31" data-name="Tracé 31" d="M.139,26.821l-.279-.984L92.807-.492l.279.984Z" transform="translate(1.203 3.185)" fill="#073f8a"/>
        <path id="Tracé_29" data-name="Tracé 29" d="M9.272,32.334a.512.512,0,0,0-.345-.637l-7.5-2.247L6.635,23.6a.512.512,0,1,0-.764-.681L.129,29.37a.511.511,0,0,0,.236.83l8.269,2.478a.525.525,0,0,0,.286,0,.514.514,0,0,0,.352-.346" fill="#073f8a"/>
        <path id="Tracé_30" data-name="Tracé 30" d="M88.758,9.817a.512.512,0,0,1-.041-.723l5.207-5.846L86.425,1A.512.512,0,0,1,86.08.364a.516.516,0,0,1,.638-.343L94.988,2.5a.512.512,0,0,1,.235.831L89.482,9.775a.524.524,0,0,1-.243.152.515.515,0,0,1-.481-.11" fill="#073f8a"/>
      </g>
    </g>
    <g id="Groupe_41" data-name="Groupe 41" transform="translate(1118.953 2912.129)">
      <g id="Groupe_40" data-name="Groupe 40" clip-path="url(#clip-path-8)">
        <path id="Ligne_11" data-name="Ligne 11" d="M.5,306.421h-1V0h1Z" transform="translate(5.031 1.16)" fill="#073f8a"/>
        <path id="Tracé_32" data-name="Tracé 32" d="M.231,7.754a.511.511,0,0,0,.69-.149l4.11-6.225L9.14,7.606a.512.512,0,0,0,.691.149.476.476,0,0,0,.153-.667L5.453.223a.511.511,0,0,0-.844,0L.078,7.088A.469.469,0,0,0,0,7.346a.481.481,0,0,0,.231.408" fill="#073f8a"/>
        <path id="Tracé_33" data-name="Tracé 33" d="M.231,311.96a.511.511,0,0,1,.69.149l4.11,6.225,4.109-6.225a.512.512,0,0,1,.691-.149.476.476,0,0,1,.153.667l-4.531,6.865a.511.511,0,0,1-.844,0L.078,312.627A.469.469,0,0,1,0,312.368a.481.481,0,0,1,.231-.408" transform="translate(0 -10.973)" fill="#073f8a"/>
      </g>
    </g>
    <g id="Groupe_43" data-name="Groupe 43" transform="translate(1162 2851.025)">
      <g id="Groupe_42" data-name="Groupe 42" clip-path="url(#clip-path-9)">
        <path id="Ligne_13" data-name="Ligne 13" d="M.035,19.331l-.07-1L268.566-.5l.07,1Z" transform="translate(1.201 4.571)" fill="#073f8a"/>
        <path id="Tracé_34" data-name="Tracé 34" d="M8.354,27.713a.5.5,0,0,0-.2-.678L1.428,23.387l6.149-4.551a.5.5,0,1,0-.6-.8L.2,23.05a.5.5,0,0,0,.059.842l7.414,4.022a.5.5,0,0,0,.679-.2" fill="#073f8a"/>
        <path id="Tracé_35" data-name="Tracé 35" d="M263.319,9.837a.5.5,0,0,1,.106-.7l6.149-4.55L262.85.939a.5.5,0,1,1,.477-.879l7.413,4.022a.5.5,0,0,1,.059.842L264.02,9.942a.506.506,0,0,1-.263.1.5.5,0,0,1-.438-.2" fill="#073f8a"/>
      </g>
    </g>
  </g>
</svg>
