<svg id="Groupe_92" data-name="Groupe 92" xmlns="http://www.w3.org/2000/svg" xmlns:xlink="http://www.w3.org/1999/xlink" width="502.75" height="540.236" viewBox="0 0 502.75 540.236">
  <defs>
    <clipPath id="clip-path">
      <rect id="Rectangle_147" data-name="Rectangle 147" width="502.75" height="540.236" fill="none"/>
    </clipPath>
    <clipPath id="clip-path-3">
      <path id="Tracé_64" data-name="Tracé 64" d="M280.221,4.458a36.455,36.455,0,0,1,18,31.464l4.969,350.54a36.43,36.43,0,0,1-16.908,30.783l128.32-34.37c9.385,0,16.984-8.391,16.984-18.757l-5.171-316.6c0-10.366-7.6-18.757-16.984-18.757L275.78,2.23a35.712,35.712,0,0,1,4.441,2.228" transform="translate(-275.78 -2.23)" fill="none"/>
    </clipPath>
    <linearGradient id="linear-gradient" x1="-2.227" y1="1.295" x2="-2.219" y2="1.295" gradientUnits="objectBoundingBox">
      <stop offset="0" stop-color="#073f8a"/>
      <stop offset="1" stop-color="#073f8a"/>
    </linearGradient>
    <clipPath id="clip-path-5">
      <rect id="Rectangle_143" data-name="Rectangle 143" width="33.428" height="10.159" fill="none"/>
    </clipPath>
  </defs>
  <g id="Groupe_91" data-name="Groupe 91" clip-path="url(#clip-path)">
    <g id="Groupe_79" data-name="Groupe 79">
      <g id="Groupe_78" data-name="Groupe 78" clip-path="url(#clip-path)">
        <path id="Tracé_63" data-name="Tracé 63" d="M391.724,410.791c0,17.452-69.479,31.6-155.187,31.6s-155.186-14.147-155.186-31.6,69.479-31.6,155.186-31.6,155.187,14.147,155.187,31.6" transform="translate(20.992 97.847)" fill="#f6f6f6"/>
      </g>
    </g>
    <g id="Groupe_81" data-name="Groupe 81" transform="translate(346.942 2.805)">
      <g id="Groupe_80" data-name="Groupe 80" clip-path="url(#clip-path-3)">
        <rect id="Rectangle_141" data-name="Rectangle 141" width="155.808" height="415.015" transform="translate(0 0)" fill="url(#linear-gradient)"/>
      </g>
    </g>
    <g id="Groupe_86" data-name="Groupe 86">
      <g id="Groupe_85" data-name="Groupe 85" clip-path="url(#clip-path)">
        <path id="Tracé_65" data-name="Tracé 65" d="M369.386,36.5a36.457,36.457,0,0,0-18-31.464,35.707,35.707,0,0,0-4.441-2.227A36.581,36.581,0,0,0,332.877,0l-9.159.717-1.988.151L36.5,23.11A36.5,36.5,0,0,0,0,59.606V375.965a36.5,36.5,0,0,0,36.5,36.508l301.363,11.058a36.255,36.255,0,0,0,19.575-5.7.012.012,0,0,1,.013-.013,36.431,36.431,0,0,0,16.908-30.784ZM321.731,259.081,29.577,254.942V58.675L321.731,37.364l8.655-.629L334.3,259.257Z" fill="#83c9f0"/>
        <path id="Tracé_66" data-name="Tracé 66" d="M91.95,37.865,19.02,43.282V28.793l72.424-5.768Z" transform="translate(4.908 5.941)" fill="#6fadc9"/>
        <path id="Tracé_67" data-name="Tracé 67" d="M97.477,311.5l-75.163-4.379a9.969,9.969,0,0,1-9.759-10.167V234.393a9.969,9.969,0,0,1,9.759-10.169l75.886.516a9.969,9.969,0,0,1,9.759,10.167l-.723,66.422A9.97,9.97,0,0,1,97.477,311.5" transform="translate(3.24 57.859)" fill="#f6f6f6"/>
        <path id="Tracé_68" data-name="Tracé 68" d="M77.359,293.291H40.6a4.251,4.251,0,0,1-4.252-4.251V242.382A4.252,4.252,0,0,1,40.6,238.13H77.359a4.251,4.251,0,0,1,4.251,4.252V289.04a4.251,4.251,0,0,1-4.251,4.251" transform="translate(9.38 61.447)" fill="#e8c30c"/>
        <path id="Tracé_69" data-name="Tracé 69" d="M66.469,293.291H29.705a4.248,4.248,0,0,1-4.247-4.247V242.378a4.248,4.248,0,0,1,4.247-4.248H66.469a4.247,4.247,0,0,1,4.247,4.248v46.666a4.247,4.247,0,0,1-4.247,4.247" transform="translate(6.569 61.447)" fill="#ffed00"/>
        <rect id="Rectangle_142" data-name="Rectangle 142" width="33.427" height="10.16" transform="translate(37.213 306.681)" fill="#b2b2b2"/>
        <g id="Groupe_84" data-name="Groupe 84" transform="translate(37.212 306.682)" opacity="0.28">
          <g id="Groupe_83" data-name="Groupe 83">
            <g id="Groupe_82" data-name="Groupe 82" clip-path="url(#clip-path-5)">
              <path id="Tracé_70" data-name="Tracé 70" d="M43.8,249.543l-14.222,4.394v-10.16H63.007Z" transform="translate(-29.579 -243.778)" fill="#fff"/>
            </g>
          </g>
        </g>
        <path id="Tracé_71" data-name="Tracé 71" d="M51.1,280.471H28.98V268.752H62.821A11.719,11.719,0,0,1,51.1,280.471" transform="translate(7.478 69.349)" fill="#3c3c3b"/>
        <path id="Tracé_72" data-name="Tracé 72" d="M279.618,328.354l-87.823-3.247a11.51,11.51,0,0,1-11.267-11.74V241.139a11.51,11.51,0,0,1,11.267-11.74l87.615.6a11.511,11.511,0,0,1,11.266,11.741l.209,74.879a11.511,11.511,0,0,1-11.267,11.74" transform="translate(46.583 59.194)" fill="#ededed"/>
        <path id="Tracé_73" data-name="Tracé 73" d="M279.618,329.839h-.055l-87.8-3.246a12.443,12.443,0,0,1-9.011-3.9,13.4,13.4,0,0,1-3.713-9.33V241.139a13.4,13.4,0,0,1,3.713-9.33,12.442,12.442,0,0,1,9.039-3.9h.01l87.615.6a12.439,12.439,0,0,1,9.028,3.9,13.4,13.4,0,0,1,3.713,9.331l.209,74.874a13.4,13.4,0,0,1-3.714,9.334A12.442,12.442,0,0,1,279.618,329.839Zm-87.827-98.955a10.038,10.038,0,0,0-9.777,10.255v72.228a10.038,10.038,0,0,0,9.781,10.255h.055l87.794,3.246a10.039,10.039,0,0,0,9.755-10.254l-.209-74.874a10.039,10.039,0,0,0-9.78-10.26h-.01Z" transform="translate(46.583 59.194)" fill="#dadada"/>
      </g>
    </g>
    <text id="PUSH" transform="translate(241.65 346.159) rotate(0.874)" fill="#c6c6c6" font-size="27" font-family="Helvetica"><tspan x="0" y="0">PUSH</tspan></text>
    <g id="Groupe_88" data-name="Groupe 88">
      <g id="Groupe_87" data-name="Groupe 87" clip-path="url(#clip-path)">
        <path id="Tracé_74" data-name="Tracé 74" d="M328.232,251.722,23.51,247.758V51.141L324.32,29.2Z" transform="translate(6.067 7.535)" fill="#f4f4f4"/>
      </g>
    </g>
    <text id="Installation_en_" data-name="Installation en " transform="translate(50.947 196.822)" fill="#a277bc" font-size="30" font-family="HKGrotesk-Bold, HK Grotesk" font-weight="700"><tspan x="0" y="0">Ins</tspan><tspan y="0" letter-spacing="0.005em">t</tspan><tspan y="0">al</tspan><tspan y="0" letter-spacing="-0.002em">la</tspan><tspan y="0" letter-spacing="0.002em">t</tspan><tspan y="0">ion en </tspan></text>
    <text id="cours_..." data-name="cours ..." transform="translate(50.947 234.563)" fill="#a277bc" font-size="30" font-family="HKGrotesk-Bold, HK Grotesk" font-weight="700"><tspan x="0" y="0" letter-spacing="-0.004em">c</tspan><tspan y="0" letter-spacing="-0.001em">o</tspan><tspan y="0">u</tspan><tspan y="0" letter-spacing="-0.014em">r</tspan><tspan y="0">s ...</tspan></text>
    <g id="Groupe_90" data-name="Groupe 90">
      <g id="Groupe_89" data-name="Groupe 89" clip-path="url(#clip-path)">
        <path id="Tracé_75" data-name="Tracé 75" d="M117.594,86.607h.013a19.658,19.658,0,0,1,11.548,3.725,19.87,19.87,0,0,1,6.734,8.49l58.634.038a3.9,3.9,0,0,1,3.891,3.9l0,7.415a3.9,3.9,0,0,1-3.893,3.891l-58.637-.038a19.814,19.814,0,0,1-18.285,12.19h-.013a19.659,19.659,0,0,1-11.548-3.725A19.863,19.863,0,0,1,98.915,113a1.5,1.5,0,0,1,1.414-2h0l15.76.01.007-9.2-15.76-.01a1.5,1.5,0,0,1-1.413-2,19.812,19.812,0,0,1,18.67-13.191Zm76.921,24.456a.9.9,0,0,0,.894-.893l0-7.415a.9.9,0,0,0-.893-.895l-59.663-.039a1.5,1.5,0,0,1-1.414-1A16.81,16.81,0,0,0,117.6,89.607h-.011A16.818,16.818,0,0,0,102.608,98.8l14.991.01a1.5,1.5,0,0,1,1.5,1.5l-.009,12.2a1.5,1.5,0,0,1-1.5,1.5h0L102.6,114a16.819,16.819,0,0,0,14.985,9.213h.011a16.814,16.814,0,0,0,15.842-11.192,1.5,1.5,0,0,1,1.414-1h0Z" transform="translate(25.889 22.735)" fill="#a277bc"/>
      </g>
    </g>
  </g>
</svg>
