<svg xmlns="http://www.w3.org/2000/svg" width="55.082" height="51" viewBox="0 0 55.082 51">
  <g id="Medium-M" transform="translate(-1697.118 -1046.508)">
    <path id="Tracé_12" data-name="Tracé 12" d="M1697.118,1063.517c0,11.621,9.77,23.1,24.955,32.9a3.615,3.615,0,0,0,5.171,0c15.213-9.8,24.956-21.282,24.956-32.9,0-10.042-6.94-17.009-15.839-17.009a13.732,13.732,0,0,0-11.7,5.96,13.679,13.679,0,0,0-11.675-5.96C1704.057,1046.508,1697.118,1053.475,1697.118,1063.517Zm5.606-.027c0-6.858,4.518-11.512,10.587-11.512,4.9,0,7.647,2.967,9.362,5.552.762,1.116,1.279,1.47,1.987,1.47.734,0,1.2-.381,1.986-1.47,1.85-2.531,4.49-5.552,9.362-5.552,6.1,0,10.614,4.654,10.614,11.512,0,9.579-9.961,20.193-21.445,27.813a1.328,1.328,0,0,1-.517.272,1.115,1.115,0,0,1-.49-.272C1712.684,1083.683,1702.724,1073.069,1702.724,1063.49Z" transform="translate(0)" fill="#d66ad2"/>
  </g>
</svg>
