<svg xmlns="http://www.w3.org/2000/svg" width="27" height="22.895" viewBox="0 0 27 22.895">
  <g id="Download_Icon" data-name="Download Icon" transform="translate(-33 -22.053)">
    <path id="Tracé_9" data-name="Tracé 9" d="M18.5,7.6a1.233,1.233,0,0,0-.4-.88L11.715.372A1.275,1.275,0,0,0,10.854,0,1.124,1.124,0,0,0,9.681,1.14a1.208,1.208,0,0,0,.349.843l1.834,1.847L14.9,6.57l-2.308-.149H1.21A1.136,1.136,0,0,0,0,7.6a1.146,1.146,0,0,0,1.21,1.19H12.588l2.32-.161L11.865,11.38l-1.834,1.835a1.208,1.208,0,0,0-.349.843,1.124,1.124,0,0,0,1.173,1.14,1.223,1.223,0,0,0,.848-.372l6.4-6.347A1.232,1.232,0,0,0,18.5,7.6Z" transform="translate(54.1 22.053) rotate(90)" fill="#9666a8"/>
    <rect id="Rectangle_148" data-name="Rectangle 148" width="27" height="2" rx="1" transform="translate(33 42.947)" fill="#9666a8"/>
  </g>
</svg>
