<svg xmlns="http://www.w3.org/2000/svg" width="23" height="28" viewBox="0 0 23 28">
  <g id="Medium-S" transform="translate(0 28) rotate(-90)">
    <path id="Tracé_9" data-name="Tracé 9" d="M28,11.5a1.866,1.866,0,0,0-.6-1.332L17.729.562A1.929,1.929,0,0,0,16.426,0a1.7,1.7,0,0,0-1.775,1.726A1.827,1.827,0,0,0,15.18,3l2.775,2.8,4.588,4.146L19.05,9.718H1.831A1.719,1.719,0,0,0,0,11.5a1.734,1.734,0,0,0,1.831,1.8H19.05l3.512-.244-4.607,4.165L15.18,20a1.827,1.827,0,0,0-.529,1.276A1.7,1.7,0,0,0,16.426,23a1.85,1.85,0,0,0,1.284-.563L27.4,12.832A1.865,1.865,0,0,0,28,11.5Z" fill="#fff"/>
  </g>
</svg>
