<svg xmlns="http://www.w3.org/2000/svg" width="56.336" height="81.457" viewBox="0 0 56.336 81.457">
  <path id="Icone_éclair" data-name="Icone éclair" d="M-1503.29-6524.043a2.49,2.49,0,0,1,.646.085,2.5,2.5,0,0,1,1.854,2.415v25.606l22.749-2.571a2.5,2.5,0,0,1,2.4,1.157,2.5,2.5,0,0,1-.005,2.663l-32.194,50.938a2.5,2.5,0,0,1-2.885,1.042,2.5,2.5,0,0,1-1.723-2.538l1.991-31.077-18.36,2.049a2.417,2.417,0,0,1-.278.016,2.5,2.5,0,0,1-2.091-1.131,2.5,2.5,0,0,1-.074-2.617l25.806-44.785A2.5,2.5,0,0,1-1503.29-6524.043Zm0,33.4a2.5,2.5,0,0,1-1.665-.636,2.5,2.5,0,0,1-.834-1.864V-6512.2l-18.674,32.407,16.413-1.831a2.4,2.4,0,0,1,.277-.016,2.5,2.5,0,0,1,1.725.691,2.5,2.5,0,0,1,.769,1.969l-1.555,24.274,24.175-38.251-20.351,2.3A2.584,2.584,0,0,1-1503.29-6490.639Z" transform="translate(1531.596 6524.043)" fill="#4fa446"/>
</svg>
