<svg xmlns="http://www.w3.org/2000/svg" width="57.299" height="55.875" viewBox="0 0 57.299 55.875">
  <g id="Leaf_Icon" data-name="Leaf Icon" transform="translate(-69.5 -35.205)">
    <path id="Rectangle_83" data-name="Rectangle 83" d="M24.929-2.5a27.421,27.421,0,0,1,19.4,46.824,27.351,27.351,0,0,1-19.4,8.034H-2.5V24.929A27.408,27.408,0,0,1,24.929-2.5Zm0,49.858a22.436,22.436,0,0,0,8.73-43.1A22.422,22.422,0,0,0,2.5,24.929V47.358Z" transform="translate(72 38.722)" fill="#1ba736"/>
    <rect id="Rectangle_84" data-name="Rectangle 84" width="18.697" height="3.914" rx="1.957" transform="translate(85.443 57.391)" fill="#1ba736"/>
    <rect id="Rectangle_85" data-name="Rectangle 85" width="62.06" height="3.914" rx="1.957" transform="translate(80.148 79.088) rotate(-45)" fill="#1ba736"/>
    <rect id="Rectangle_86" data-name="Rectangle 86" width="12.468" height="3.914" rx="1.957" transform="translate(82.478 65.613)" fill="#1ba736"/>
    <rect id="Rectangle_87" data-name="Rectangle 87" width="12.491" height="3.914" rx="1.957" transform="translate(95.928 66.592) rotate(90)" fill="#1ba736"/>
    <rect id="Rectangle_88" data-name="Rectangle 88" width="18.697" height="3.914" rx="1.957" transform="translate(104.145 57.392) rotate(90)" fill="#1ba736"/>
  </g>
</svg>
