<svg xmlns="http://www.w3.org/2000/svg" width="46" height="46" viewBox="0 0 46 46">
  <g id="Logo_linkedIn" data-name="Logo linkedIn" transform="translate(-1681 -140)">
    <rect id="Rectangle_138" data-name="Rectangle 138" width="46" height="46" rx="6" transform="translate(1681 140)" fill="#fff"/>
    <path id="Tracé_7" data-name="Tracé 7" d="M153.083,322.623a2.115,2.115,0,0,1,.732-1.657,3.107,3.107,0,0,1,3.792,0,2.247,2.247,0,0,1,0,3.315,3.106,3.106,0,0,1-3.792,0A2.115,2.115,0,0,1,153.083,322.623Zm5.028,19.113h-4.747V326.543h4.747Z" transform="translate(1538.917 -168.32)" fill="#052c56"/>
    <path id="Tracé_8" data-name="Tracé 8" d="M163.35,324.32l.187,1.783a6.754,6.754,0,0,1,5.234-2.064,5.806,5.806,0,0,1,4.277,1.419,5.964,5.964,0,0,1,1.465,4.268v9.788h-5.726v-9.591a2.26,2.26,0,0,0-.559-1.692,2.932,2.932,0,0,0-2.032-.54,2.9,2.9,0,0,0-2.489,1.1v10.727H158V324.32Z" transform="translate(1541.854 -166.098)" fill="#052c56"/>
  </g>
</svg>
