<svg xmlns="http://www.w3.org/2000/svg" width="42.997" height="51.362" viewBox="0 0 42.997 51.362">
  <g id="Groupe_12" data-name="Groupe 12" transform="translate(877.675 32.171)">
    <path id="Tracé_4" data-name="Tracé 4" d="M-855.707-18.45a15.822,15.822,0,0,0,4.421-1.053,16.743,16.743,0,0,1,5.325-1.053,11.349,11.349,0,0,1,6.588,1.987,16.376,16.376,0,0,1,3.22,3.1,20.591,20.591,0,0,0-3.517,3.641,10.894,10.894,0,0,0-2.018,6.383,11.775,11.775,0,0,0,2.137,6.886,9.264,9.264,0,0,0,4.873,3.882,30.635,30.635,0,0,1-3.79,7.734q-4.006,6.047-7.944,6.049a13.779,13.779,0,0,1-4.318-1,14.159,14.159,0,0,0-4.648-.991,11.769,11.769,0,0,0-4.406,1.037,11.335,11.335,0,0,1-4.078,1.037q-4.73,0-9.269-8a31.067,31.067,0,0,1-4.545-15.529q0-7.071,3.476-11.523a10.682,10.682,0,0,1,8.771-4.452,20.111,20.111,0,0,1,5.459.935A19.62,19.62,0,0,0-855.707-18.45Zm9.418-12.427a11.6,11.6,0,0,1-.9,4.216,12.469,12.469,0,0,1-2.86,4.242,9.128,9.128,0,0,1-3.338,2.224,15.751,15.751,0,0,1-3.189.514,13.8,13.8,0,0,1,2.388-7.913q2.333-3.343,7.718-4.575a3.613,3.613,0,0,1,.154.693A6,6,0,0,1-846.289-30.877Z" transform="translate(0 0)" fill="#fff"/>
  </g>
</svg>
