<svg xmlns="http://www.w3.org/2000/svg" width="46" height="46" viewBox="0 0 46 46">
  <g id="Logo_Insta" data-name="Logo Insta" transform="translate(-1447.195 -6791.195)">
    <path id="Rectangle_56" data-name="Rectangle 56" d="M12.545,3.485a9.061,9.061,0,0,0-9.061,9.061V33.455a9.061,9.061,0,0,0,9.061,9.061H33.455a9.061,9.061,0,0,0,9.061-9.061V12.545a9.061,9.061,0,0,0-9.061-9.061H12.545m0-3.485H33.455A12.545,12.545,0,0,1,46,12.545V33.455A12.545,12.545,0,0,1,33.455,46H12.545A12.545,12.545,0,0,1,0,33.455V12.545A12.545,12.545,0,0,1,12.545,0Z" transform="translate(1447.195 6791.195)" fill="#fff"/>
    <path id="Ellipse_13" data-name="Ellipse 13" d="M11.537,3.5a8.041,8.041,0,1,0,5.686,2.355A7.988,7.988,0,0,0,11.537,3.5m0-3.5A11.537,11.537,0,1,1,0,11.537,11.537,11.537,0,0,1,11.537,0Z" transform="translate(1459.005 6803.005)" fill="#fff"/>
    <circle id="Ellipse_14" data-name="Ellipse 14" cx="2" cy="2" r="2" transform="translate(1480.15 6799.24)" fill="#fff"/>
  </g>
</svg>
