<svg xmlns="http://www.w3.org/2000/svg" width="67" height="67" viewBox="0 0 67 67">
  <g id="Tick_Icon" data-name="Tick Icon" transform="translate(-1474 -1836)">
    <path id="Ellipse_29" data-name="Ellipse 29" d="M33.5,4A29.509,29.509,0,0,0,22.019,60.683,29.509,29.509,0,0,0,44.981,6.317,29.312,29.312,0,0,0,33.5,4m0-4A33.5,33.5,0,1,1,0,33.5,33.5,33.5,0,0,1,33.5,0Z" transform="translate(1474 1836)" fill="#ed7955"/>
    <path id="Tracé_36" data-name="Tracé 36" d="M168.623-6265.144a2,2,0,0,1-1.4-.57l-7.6-7.427a2,2,0,0,1-.032-2.828,2,2,0,0,1,2.828-.032l5.806,5.677,11.7-19.02a2,2,0,0,1,2.751-.656,2,2,0,0,1,.656,2.751L170.327-6266.1a2,2,0,0,1-1.459.937A1.967,1.967,0,0,1,168.623-6265.144Z" transform="translate(1336.859 8149.895)" fill="#ed7955"/>
  </g>
</svg>
