<svg xmlns="http://www.w3.org/2000/svg" width="131.733" height="27.026" viewBox="0 0 131.733 27.026">
  <path id="Tracé_77" data-name="Tracé 77" d="M1.055,0H5.7l5.171-16.919h1.289v-4.219H8.394ZM4.98-5.127H16.919L15.835-8.437H6.064ZM16.289,0h4.658L13.594-21.138H11.133v4.219Zm7.017,5.347h4.277V-2.578h.264a4.582,4.582,0,0,0,1.121,1.509,5.2,5.2,0,0,0,1.655.981,5.857,5.857,0,0,0,2.058.352,6.043,6.043,0,0,0,3.5-1A6.4,6.4,0,0,0,38.438-3.6a11.345,11.345,0,0,0,.791-4.453v-.029a11.157,11.157,0,0,0-.8-4.431,6.5,6.5,0,0,0-2.263-2.864,5.986,5.986,0,0,0-3.486-1.011,6.238,6.238,0,0,0-2.08.33,4.878,4.878,0,0,0-1.633.945,4.746,4.746,0,0,0-1.121,1.479h-.264v-2.49H23.306ZM31.216-3.3a3.332,3.332,0,0,1-1.941-.571,3.671,3.671,0,0,1-1.282-1.648,6.51,6.51,0,0,1-.454-2.542v-.029a6.579,6.579,0,0,1,.447-2.556,3.634,3.634,0,0,1,1.274-1.633,3.357,3.357,0,0,1,1.956-.571,3.314,3.314,0,0,1,1.956.571,3.671,3.671,0,0,1,1.26,1.641,6.592,6.592,0,0,1,.447,2.549v.029a6.592,6.592,0,0,1-.447,2.549,3.671,3.671,0,0,1-1.26,1.641A3.314,3.314,0,0,1,31.216-3.3ZM41.5,5.347h4.277V-2.578h.264a4.582,4.582,0,0,0,1.121,1.509,5.2,5.2,0,0,0,1.655.981,5.857,5.857,0,0,0,2.058.352,6.043,6.043,0,0,0,3.5-1A6.4,6.4,0,0,0,56.631-3.6a11.345,11.345,0,0,0,.791-4.453v-.029a11.157,11.157,0,0,0-.8-4.431,6.5,6.5,0,0,0-2.263-2.864,5.986,5.986,0,0,0-3.486-1.011,6.238,6.238,0,0,0-2.08.33,4.878,4.878,0,0,0-1.633.945,4.746,4.746,0,0,0-1.121,1.479h-.264v-2.49H41.5ZM49.409-3.3a3.332,3.332,0,0,1-1.941-.571,3.671,3.671,0,0,1-1.282-1.648,6.51,6.51,0,0,1-.454-2.542v-.029a6.579,6.579,0,0,1,.447-2.556,3.634,3.634,0,0,1,1.274-1.633,3.357,3.357,0,0,1,1.956-.571,3.314,3.314,0,0,1,1.956.571,3.671,3.671,0,0,1,1.26,1.641,6.592,6.592,0,0,1,.447,2.549v.029a6.592,6.592,0,0,1-.447,2.549,3.671,3.671,0,0,1-1.26,1.641A3.314,3.314,0,0,1,49.409-3.3ZM67.676.542A11.222,11.222,0,0,0,72.224-.3a6.7,6.7,0,0,0,2.944-2.373A6.327,6.327,0,0,0,76.2-6.3v-.015a5.055,5.055,0,0,0-1.531-3.9,10.155,10.155,0,0,0-4.885-2.109l-2.241-.454a6.582,6.582,0,0,1-2.688-1.033,2.041,2.041,0,0,1-.828-1.677V-15.5a2.152,2.152,0,0,1,.454-1.37,2.941,2.941,0,0,1,1.274-.9,5.187,5.187,0,0,1,1.9-.322,5.345,5.345,0,0,1,1.956.33,3.427,3.427,0,0,1,1.348.9,2.656,2.656,0,0,1,.637,1.333l.029.176h4.16l-.015-.19A6.066,6.066,0,0,0,74.648-18.7a6.723,6.723,0,0,0-2.761-2.183,10.2,10.2,0,0,0-4.226-.8,10.087,10.087,0,0,0-4.16.813,6.836,6.836,0,0,0-2.856,2.278,5.768,5.768,0,0,0-1.04,3.428v.015a5.42,5.42,0,0,0,1.494,3.94,9.1,9.1,0,0,0,4.79,2.212l2.227.454a7.415,7.415,0,0,1,2.82,1.04,1.984,1.984,0,0,1,.842,1.67v.015a2.2,2.2,0,0,1-.505,1.428,3.319,3.319,0,0,1-1.4.974,5.66,5.66,0,0,1-2.08.352A6.526,6.526,0,0,1,65.61-3.4a3.8,3.8,0,0,1-1.516-.93,2.337,2.337,0,0,1-.652-1.384l-.015-.146H59.165l.015.234a5.908,5.908,0,0,0,1.194,3.259A6.858,6.858,0,0,0,63.3-.22,11.515,11.515,0,0,0,67.676.542ZM85.723.059A11.354,11.354,0,0,0,86.909,0q.557-.059.952-.132V-3.311q-.308.029-.579.051t-.681.022a2.118,2.118,0,0,1-1.575-.505,2.213,2.213,0,0,1-.491-1.589v-7.573h3.325v-3.223H84.536V-19.98H80.215v3.853h-2.49v3.223h2.49v8.555A4.076,4.076,0,0,0,81.5-.974,6.79,6.79,0,0,0,85.723.059ZM97.031.352A8.513,8.513,0,0,0,101.3-.659a6.746,6.746,0,0,0,2.732-2.893,9.876,9.876,0,0,0,.952-4.5v-.029a9.716,9.716,0,0,0-.967-4.49,6.836,6.836,0,0,0-2.747-2.893,8.451,8.451,0,0,0-4.241-1.011,8.4,8.4,0,0,0-4.241,1.018,6.892,6.892,0,0,0-2.747,2.893,9.671,9.671,0,0,0-.967,4.482v.029a9.876,9.876,0,0,0,.952,4.5A6.734,6.734,0,0,0,92.769-.659,8.523,8.523,0,0,0,97.031.352Zm0-3.369a3.162,3.162,0,0,1-1.941-.593,3.652,3.652,0,0,1-1.216-1.721,7.874,7.874,0,0,1-.417-2.725v-.029a7.641,7.641,0,0,1,.425-2.7A3.8,3.8,0,0,1,95.1-12.517a3.087,3.087,0,0,1,1.926-.608,3.087,3.087,0,0,1,1.926.608,3.8,3.8,0,0,1,1.223,1.729,7.641,7.641,0,0,1,.425,2.7v.029a7.7,7.7,0,0,1-.425,2.71,3.769,3.769,0,0,1-1.216,1.729A3.1,3.1,0,0,1,97.031-3.018ZM107.446,0h4.277V-9.023a3.8,3.8,0,0,1,.483-1.963,3.237,3.237,0,0,1,1.377-1.267,4.664,4.664,0,0,1,2.109-.447,7.419,7.419,0,0,1,.989.066,9.5,9.5,0,0,1,.974.183v-3.735a6.005,6.005,0,0,0-.74-.146,6.159,6.159,0,0,0-.857-.059,4.521,4.521,0,0,0-2.622.725,3.673,3.673,0,0,0-1.45,2.043h-.264v-2.5h-4.277Zm17.886.352A9.3,9.3,0,0,0,128.4-.1a7.034,7.034,0,0,0,2.168-1.172,6.084,6.084,0,0,0,1.37-1.545,5.874,5.874,0,0,0,.688-1.589l.029-.146h-3.984l-.044.088a2.4,2.4,0,0,1-.549.681,3.618,3.618,0,0,1-1.062.652,4.1,4.1,0,0,1-1.6.278,3.733,3.733,0,0,1-1.992-.513,3.36,3.36,0,0,1-1.289-1.479,5.444,5.444,0,0,1-.454-2.329V-8.906a5.533,5.533,0,0,1,.461-2.38,3.435,3.435,0,0,1,1.26-1.479,3.337,3.337,0,0,1,1.824-.505,3.364,3.364,0,0,1,1.824.491,3.288,3.288,0,0,1,1.23,1.458,5.76,5.76,0,0,1,.447,2.417v1.714l2.007-2.534H119.59v2.681h13.2V-8.379a9.3,9.3,0,0,0-.923-4.263,6.765,6.765,0,0,0-2.637-2.827,7.874,7.874,0,0,0-4.072-1.011,7.787,7.787,0,0,0-4.08,1.04,6.958,6.958,0,0,0-2.681,2.93,9.846,9.846,0,0,0-.945,4.453v.015a9.76,9.76,0,0,0,.952,4.468,6.873,6.873,0,0,0,2.717,2.9A8.242,8.242,0,0,0,125.332.352Z" transform="translate(-1.055 21.68)" fill="#fff"/>
</svg>
